<svg width="140" height="152" viewBox="0 0 140 152" fill="none" xmlns="http://www.w3.org/2000/svg">
<g filter="url(#filter0_di)">
<path d="M76.9448 77H63.0552C62.5229 77 62.0839 76.5829 62.0566 76.0513L60.054 37.0513C60.0246 36.4796 60.4802 36 61.0527 36H78.9473C79.5198 36 79.9754 36.4796 79.946 37.0513L77.9435 76.0513C77.9162 76.5829 77.4771 77 76.9448 77Z" fill="#4187C3" stroke="#4187C3"/>
<path d="M67.3542 114.66C68.75 116.272 71.2501 116.272 72.6458 114.66L102.861 79.7703C104.824 77.5035 103.214 73.979 100.216 73.979H39.7844C36.7858 73.979 35.1756 77.5035 37.1387 79.7703L67.3542 114.66Z" fill="#4187C3" stroke="#4187C3"/>
</g>
<defs>
<filter id="filter0_di" x="-1" y="-1" width="140.223" height="152.369" filterUnits="userSpaceOnUse" color-interpolation-filters="sRGB">
<feFlood flood-opacity="0" result="BackgroundImageFix"/>
<feColorMatrix in="SourceAlpha" type="matrix" values="0 0 0 0 0 0 0 0 0 0 0 0 0 0 0 0 0 0 127 0"/>
<feOffset/>
<feGaussianBlur stdDeviation="17.5"/>
<feColorMatrix type="matrix" values="0 0 0 0 0.254902 0 0 0 0 0.529412 0 0 0 0 0.764706 0 0 0 1 0"/>
<feBlend mode="normal" in2="BackgroundImageFix" result="effect1_dropShadow"/>
<feBlend mode="normal" in="SourceGraphic" in2="effect1_dropShadow" result="shape"/>
<feColorMatrix in="SourceAlpha" type="matrix" values="0 0 0 0 0 0 0 0 0 0 0 0 0 0 0 0 0 0 127 0" result="hardAlpha"/>
<feOffset/>
<feGaussianBlur stdDeviation="2.5"/>
<feComposite in2="hardAlpha" operator="arithmetic" k2="-1" k3="1"/>
<feColorMatrix type="matrix" values="0 0 0 0 0.254902 0 0 0 0 0.529412 0 0 0 0 0.764706 0 0 0 1 0"/>
<feBlend mode="normal" in2="shape" result="effect2_innerShadow"/>
</filter>
</defs>
</svg>
