<?xml version="1.0" encoding="UTF-8"?>
<!DOCTYPE svg PUBLIC "-//W3C//DTD SVG 1.1//EN" "http://www.w3.org/Graphics/SVG/1.1/DTD/svg11.dtd">
<!-- Creator: CorelDRAW 2019 (64-Bit Оценочная версия) -->
<svg xmlns="http://www.w3.org/2000/svg" xml:space="preserve" width="297mm" height="210mm" version="1.1" style="shape-rendering:geometricPrecision; text-rendering:geometricPrecision; image-rendering:optimizeQuality; fill-rule:evenodd; clip-rule:evenodd"
viewBox="0 0 29700 21000"
 xmlns:xlink="http://www.w3.org/1999/xlink"
 xmlns:xodm="http://www.corel.com/coreldraw/odm/2003">
 <defs>
  <style type="text/css">
   <![CDATA[
    .fil0 {fill:lime}
   ]]>
  </style>
 </defs>
 <g id="Слой_x0020_1">
  <metadata id="CorelCorpID_0Corel-Layer"/>
  <path class="fil0" d="M4887.07 9010.66l1249.4 0c229.36,0 410.94,28.72 637.95,186.72 115.7,90.82 258.54,291.76 275.29,502.26 14.37,555.57 0,1091.99 0,1637.99l-913.24 0.01c0.76,-105.07 0,-90.56 0,-140.66 0,-1.28 -7.73,8.21 -9,9.64 -137.93,155.84 -416.76,191.67 -523.22,188.07l-328.99 -9.57c-360.61,-31.39 -726.31,-328.76 -710.29,-721.56l6.58 -161.43c70.22,-292.05 362.06,-479.41 648.04,-513.09 306.31,-27.13 607.82,-8.77 911.74,-13.16 -3.22,-97.95 -46.16,-166.02 -88.22,-194.85 -38.95,-36.96 -106.22,-77.16 -223.51,-78.51 -250.31,-2.88 -648.85,-2.88 -932.53,-2.88l0 -688.98zm810.17 1471.12c-113.7,0 -205.86,48.1 -205.86,107.42 0,56.89 84.76,103.45 191.98,107.18 5.77,0.96 11.69,1.46 17.72,1.46l435.39 0 0 -216 -432.64 0c-2.19,-0.04 -4.38,-0.06 -6.59,-0.06zm1997.65 -2116.74l913.24 0 0 2988.69 -913.24 0 0 -2988.69zm4198.09 645.62l914.44 -1.03 -1.2 187.37c212.72,-175.45 489.78,-211.14 738.06,-186.34l0 747.9c-129.49,-17.62 -182.37,-66.1 -418.7,-33.49 -169.84,23.43 -309.17,142.4 -318.83,313.57l-0.53 324.96 0 990.13 -913.24 0 0 -2343.07zm5245.53 94.08l913.24 0 0 2248.99 -913.24 0 0 -2248.99zm-7992.99 -94.08l327.95 0 0 -377.46 913.25 0 0 377.46 604.44 0 0 688.98 -604.44 0 0 471.94 9.87 165.73c8.52,143.09 117.28,260.63 260.63,260.63 22.55,0 160.59,2.41 262.75,3.6l112.48 0 279.51 0 0 736.09 -1073.85 0c-420.55,0 -764.64,-344.08 -764.64,-764.63l0 -873.36 -327.95 0 0 -688.98zm12208.63 0l327.96 0 0 -377.46 913.24 0 0 377.46 604.44 0 0 688.98 -604.44 0 0 471.94 9.87 165.73c8.52,143.09 117.28,260.63 260.63,260.63 22.55,0 160.6,2.41 262.76,3.6l112.47 0 279.51 0 0 736.09 -1073.85 0c-420.55,0 -764.63,-344.08 -764.63,-764.63l0 -873.36 -327.96 0 0 -688.98zm-3745.8 -1117.11c307.05,0 555.97,208.46 555.97,465.6 0,257.14 -248.92,465.6 -555.97,465.6 -307.05,0 -555.96,-208.46 -555.96,-465.6 0,-257.14 248.91,-465.6 555.96,-465.6zm-3517.24 1117.11l913.25 0 0 981.5c-0.99,9.66 -1.5,19.46 -1.5,29.37l0 350.09c0,158.81 129.94,288.75 288.76,288.75l0 0c150.24,0 274.62,-116.3 287.61,-263.31l2.64 0 0 -1386.4 913.25 0 0 1386.4 0 956.67 -913.25 0 0 -142.13c-133.13,108.35 -302.62,173.52 -486.63,173.52l-282.42 0c-396.94,0 -721.71,-324.76 -721.71,-721.71l0 -266.35 0 -344.09 0 -1042.31zm5900.09 688.98c-77.82,4.69 -333.51,-1.24 -333.51,114.66 0,94.82 167.41,108.56 273.9,112.7 0,32.51 860.93,-100.25 1020.62,547.62l0 178.23c-40.92,382.71 -364.84,678.96 -757.89,684.78l-1540.67 16.1 0 -693.35 856.4 0c94.08,-2.23 514.84,29.11 514.84,-115.88 0,-59.33 -92.5,-116.08 -205.87,-107.42 -564.32,43.09 -1237.18,-165.58 -1046.92,-885.29 86.11,-353.1 388.87,-527.15 726.61,-527.15l1073.85 -13.98 233.74 0 0 688.98 -815.1 0z"/>
 </g>
</svg>
