<?xml version="1.0" encoding="UTF-8"?>
<!DOCTYPE svg PUBLIC "-//W3C//DTD SVG 1.1//EN" "http://www.w3.org/Graphics/SVG/1.1/DTD/svg11.dtd">
<!-- Creator: CorelDRAW 2018 (64-Bit) -->
<svg xmlns="http://www.w3.org/2000/svg" xml:space="preserve" width="210mm" height="297mm" version="1.1" style="shape-rendering:geometricPrecision; text-rendering:geometricPrecision; image-rendering:optimizeQuality; fill-rule:evenodd; clip-rule:evenodd"
viewBox="0 0 21000 29700"
 xmlns:xlink="http://www.w3.org/1999/xlink">
 <defs>
  <style type="text/css">
   <![CDATA[
    .fil0 {fill:#8AC22F}
   ]]>
  </style>
 </defs>
 <g id="Слой_x0020_1">
  <metadata id="CorelCorpID_0Corel-Layer"/>
  <path class="fil0" d="M11266.88 19809.77l-3191.22 -3190.32 10319.18 0c1208.14,-0.04 2187.54,-979.43 2187.54,-2187.58 0,-1208.15 -979.4,-2187.54 -2187.54,-2187.54l-10319.14 0 3191.22 -3190.32c895.72,-895.72 895.72,-2348 0,-3243.72 -895.72,-895.72 -2348,-895.72 -3243.72,0l-6575.34 6575.34c-1222.36,1176.68 -1473.82,2619.51 -114.3,3979.11l6689.64 6689.64c895.72,895.72 2348,895.72 3243.72,0 895.72,-895.72 895.72,-2348 0,-3243.72l-0.04 -0.89z"/>
  <g id="_2449600367680">
  </g>
  <g id="_2449600368192">
  </g>
  <g id="_2449600364640">
  </g>
  <g id="_2449600361824">
  </g>
  <g id="_2449600362912">
  </g>
  <g id="_2449600362592">
  </g>
  <g id="_2449600360672">
  </g>
  <g id="_2449600361120">
  </g>
  <g id="_2449600360384">
  </g>
  <g id="_2449600361280">
  </g>
  <g id="_2449600425376">
  </g>
  <g id="_2449600425664">
  </g>
  <g id="_2449600425792">
  </g>
  <g id="_2449600424576">
  </g>
  <g id="_2449600421408">
  </g>
 </g>
</svg>
