<?xml version="1.0" encoding="UTF-8"?>
<!DOCTYPE svg PUBLIC "-//W3C//DTD SVG 1.1//EN" "http://www.w3.org/Graphics/SVG/1.1/DTD/svg11.dtd">
<!-- Creator: CorelDRAW 2018 (64-Bit) -->
<svg xmlns="http://www.w3.org/2000/svg" xml:space="preserve" width="210mm" height="297mm" version="1.1" style="shape-rendering:geometricPrecision; text-rendering:geometricPrecision; image-rendering:optimizeQuality; fill-rule:evenodd; clip-rule:evenodd"
viewBox="0 0 21000 29700"
 xmlns:xlink="http://www.w3.org/1999/xlink">
 <defs>
  <style type="text/css">
   <![CDATA[
    .fil0 {fill:#4187C3}
   ]]>
  </style>
 </defs>
 <g id="Слой_x0020_1">
  <metadata id="CorelCorpID_0Corel-Layer"/>
  <path class="fil0" d="M15877.47 13665.5l-3190.32 3191.22 0 -10319.18c-0.04,-1208.14 -979.43,-2187.54 -2187.58,-2187.54 -1208.15,0 -2187.54,979.4 -2187.54,2187.54l0 10319.14 -3190.32 -3191.22c-895.72,-895.72 -2348,-895.72 -3243.72,0 -895.72,895.72 -895.72,2348 0,3243.72l6575.34 6575.34c1176.68,1222.36 2619.51,1473.82 3979.11,114.3l6689.64 -6689.64c895.72,-895.72 895.72,-2348 0,-3243.72 -895.72,-895.72 -2348,-895.72 -3243.72,0l-0.89 0.04z"/>
  <g id="_2449608210688">
  </g>
  <g id="_2449608210880">
  </g>
  <g id="_2449608211296">
  </g>
  <g id="_2449608209536">
  </g>
  <g id="_2449608208864">
  </g>
  <g id="_2449608203392">
  </g>
  <g id="_2449608204352">
  </g>
  <g id="_2449608201568">
  </g>
  <g id="_2449608195200">
  </g>
  <g id="_2449608193824">
  </g>
  <g id="_2449608193376">
  </g>
  <g id="_2449608192256">
  </g>
  <g id="_2449608190592">
  </g>
  <g id="_2449608191616">
  </g>
  <g id="_2449608191552">
  </g>
 </g>
</svg>
