<svg width="20" height="20" viewBox="0 0 20 20" fill="none" xmlns="http://www.w3.org/2000/svg">
<g clip-path="url(#clip0)">
<path d="M19.9805 5.88005C19.9336 4.81738 19.7618 4.0868 19.5156 3.45374C19.2616 2.78176 18.8709 2.18014 18.3591 1.68002C17.8589 1.1721 17.2533 0.777435 16.5892 0.527447C15.9524 0.281274 15.2257 0.109427 14.163 0.0625732C13.0924 0.0117516 12.7525 0 10.0371 0C7.32176 0 6.98188 0.0117516 5.91524 0.0586052C4.85256 0.105459 4.12198 0.277459 3.48908 0.523479C2.81695 0.777435 2.21533 1.16814 1.7152 1.68002C1.20729 2.18014 0.812773 2.78573 0.562633 3.44992C0.316461 4.0868 0.144614 4.81341 0.09776 5.87609C0.0469383 6.9467 0.0351868 7.28658 0.0351868 10.002C0.0351868 12.7173 0.0469383 13.0572 0.0937919 14.1239C0.140646 15.1865 0.312645 15.9171 0.558818 16.5502C0.812773 17.2221 1.20729 17.8238 1.7152 18.3239C2.21533 18.8318 2.82092 19.2265 3.48511 19.4765C4.12198 19.7226 4.84859 19.8945 5.91142 19.9413C6.97791 19.9883 7.31795 19.9999 10.0333 19.9999C12.7487 19.9999 13.0886 19.9883 14.1552 19.9413C15.2179 19.8945 15.9485 19.7226 16.5814 19.4765C17.9255 18.9568 18.9882 17.8941 19.5078 16.5502C19.7538 15.9133 19.9258 15.1865 19.9727 14.1239C20.0195 13.0572 20.0313 12.7173 20.0313 10.002C20.0313 7.28658 20.0273 6.9467 19.9805 5.88005ZM18.1794 14.0457C18.1364 15.0225 17.9723 15.5499 17.8356 15.9015C17.4995 16.7728 16.808 17.4643 15.9367 17.8004C15.5851 17.9372 15.0538 18.1012 14.0809 18.1441C13.026 18.1911 12.7096 18.2027 10.0411 18.2027C7.37258 18.2027 7.05224 18.1911 6.00116 18.1441C5.02441 18.1012 4.49696 17.9372 4.14533 17.8004C3.71174 17.6402 3.31708 17.3862 2.99673 17.0541C2.66463 16.7298 2.41068 16.3391 2.25043 15.9055C2.11369 15.5539 1.94962 15.0225 1.90674 14.0497C1.85973 12.9948 1.84813 12.6783 1.84813 10.0097C1.84813 7.34122 1.85973 7.02087 1.90674 5.96995C1.94962 4.99319 2.11369 4.46575 2.25043 4.11412C2.41068 3.68038 2.66463 3.28586 3.0007 2.96536C3.32486 2.63327 3.71556 2.37931 4.1493 2.21921C4.50093 2.08247 5.03234 1.9184 6.00513 1.87537C7.06002 1.82851 7.37655 1.81676 10.0449 1.81676C12.7174 1.81676 13.0338 1.82851 14.0849 1.87537C15.0616 1.9184 15.5891 2.08247 15.9407 2.21921C16.3743 2.37931 16.7689 2.63327 17.0893 2.96536C17.4214 3.28967 17.6753 3.68038 17.8356 4.11412C17.9723 4.46575 18.1364 4.99701 18.1794 5.96995C18.2263 7.02484 18.238 7.34122 18.238 10.0097C18.238 12.6783 18.2263 12.9908 18.1794 14.0457Z" fill="#E5E5E5"/>
<path d="M10.0371 4.86426C7.20071 4.86426 4.89938 7.16543 4.89938 10.002C4.89938 12.8385 7.20071 15.1397 10.0371 15.1397C12.8737 15.1397 15.1748 12.8385 15.1748 10.002C15.1748 7.16543 12.8737 4.86426 10.0371 4.86426ZM10.0371 13.3347C8.19699 13.3347 6.70439 11.8422 6.70439 10.002C6.70439 8.16172 8.19699 6.66927 10.0371 6.66927C11.8774 6.66927 13.3698 8.16172 13.3698 10.002C13.3698 11.8422 11.8774 13.3347 10.0371 13.3347Z" fill="#E5E5E5"/>
<path d="M16.5775 4.66134C16.5775 5.3237 16.0405 5.86076 15.378 5.86076C14.7156 5.86076 14.1785 5.3237 14.1785 4.66134C14.1785 3.99882 14.7156 3.46191 15.378 3.46191C16.0405 3.46191 16.5775 3.99882 16.5775 4.66134Z" fill="#E5E5E5"/>
</g>
<defs>
<clipPath id="clip0">
<rect width="20" height="20" fill="white"/>
</clipPath>
</defs>
</svg>
