<svg width="20" height="20" viewBox="0 0 20 20" fill="none" xmlns="http://www.w3.org/2000/svg">
<g clip-path="url(#clip0)">
<path d="M19.8217 14.4728C19.7679 14.3828 19.4354 13.6602 17.8353 12.1751C16.1602 10.62 16.3852 10.8725 18.4028 8.18358C19.6317 6.54596 20.123 5.54588 19.9692 5.11835C19.8229 4.71082 18.9191 4.81833 18.9191 4.81833L15.9139 4.83583C15.9139 4.83583 15.6914 4.80583 15.5251 4.90458C15.3639 5.00209 15.2601 5.22711 15.2601 5.22711C15.2601 5.22711 14.7838 6.4947 14.1488 7.57228C12.8099 9.8462 12.2736 9.96621 12.0549 9.82495C11.5461 9.49618 11.6736 8.50235 11.6736 7.7973C11.6736 5.59339 12.0074 4.67457 11.0223 4.43705C10.6948 4.35829 10.4548 4.30579 9.61844 4.29704C8.54587 4.28579 7.63705 4.30079 7.12326 4.55206C6.78074 4.71957 6.51697 5.09335 6.67823 5.1146C6.877 5.14085 7.32703 5.23586 7.5658 5.56088C7.87457 5.97966 7.86332 6.92223 7.86332 6.92223C7.86332 6.92223 8.04083 9.51618 7.44954 9.8387C7.04326 10.06 6.48697 9.60868 5.29313 7.54478C4.68184 6.48845 4.2193 5.31962 4.2193 5.31962C4.2193 5.31962 4.13055 5.1021 3.97179 4.98584C3.77927 4.84458 3.50925 4.79958 3.50925 4.79958L0.651546 4.81708C0.651546 4.81708 0.222765 4.82958 0.0652533 5.01584C-0.0747569 5.18211 0.0540025 5.52463 0.0540025 5.52463C0.0540025 5.52463 2.29166 10.7588 4.82435 13.3977C7.14827 15.8166 9.78596 15.6579 9.78596 15.6579H10.981C10.981 15.6579 11.3423 15.6179 11.5261 15.4191C11.6961 15.2366 11.6898 14.8941 11.6898 14.8941C11.6898 14.8941 11.6661 13.2902 12.4111 13.0539C13.145 12.8214 14.0875 14.6041 15.0863 15.2904C15.8414 15.8091 16.4152 15.6954 16.4152 15.6954L19.0866 15.6579C19.0866 15.6579 20.4842 15.5716 19.8217 14.4728Z" fill="#E5E5E5"/>
</g>
<defs>
<clipPath id="clip0">
<rect width="20" height="20" fill="white"/>
</clipPath>
</defs>
</svg>
