<svg
  width="20"
  height="20"
  viewBox="0 0 20 20"
  fill="none"
  xmlns="http://www.w3.org/2000/svg"
>
<path
    d="M18.7646 5.16541L18.6692 5C16.9374 2.01416 13.7079 0 10.0146 0C6.32119 0 3.09161 2.01416 1.36005 5L1.26463 5.16541C0.5967 6.36963 0.171692 7.72542 0.052063 9.16667V10.8333C0.171692 12.2746 0.5967 13.6304 1.26463 14.8342L1.36005 15C3.09161 17.9858 6.32119 20 10.0146 20C13.7079 20 16.9374 17.9858 18.6692 15L18.7646 14.8342C19.4326 13.63 19.8576 12.2746 19.977 10.8333V9.16667C19.8576 7.72542 19.4326 6.36963 18.7646 5.16541ZM14.9975 9.16667C14.9646 8.29122 14.8804 7.45422 14.7495 6.66667H17.6471C17.9887 7.44588 18.2175 8.28532 18.3054 9.16667H14.9975ZM10.0146 18.3333C9.07245 18.3333 8.06618 17.0496 7.40822 15H12.6212C11.9629 17.0496 10.9566 18.3333 10.0146 18.3333ZM6.98505 13.3333C6.83836 12.5612 6.73907 11.722 6.70042 10.8333H13.3286C13.29 11.722 13.1909 12.5612 13.0442 13.3333H6.98505ZM6.70042 9.16667C6.73907 8.27799 6.83836 7.43876 6.98505 6.66667H13.0442C13.1909 7.43876 13.29 8.27799 13.3286 9.16667H6.70042ZM10.0146 1.66667C10.9566 1.66667 11.9629 2.95085 12.6208 5H7.40822C8.06618 2.95085 9.07245 1.66667 10.0146 1.66667ZM16.6654 5H14.3858C14.1046 3.98336 13.7376 3.08756 13.3012 2.34456C14.6425 2.92297 15.7967 3.84745 16.6654 5ZM6.72829 2.34456C6.29169 3.08756 5.92466 3.98336 5.64329 5H3.36383C4.23256 3.84745 5.38674 2.92297 6.72829 2.34456ZM2.38198 6.66667H5.27952C5.14911 7.45422 5.06447 8.29122 5.03172 9.16667H1.72341C1.8113 8.28532 2.03998 7.44588 2.38198 6.66667ZM5.03172 10.8333C5.06447 11.7088 5.1487 12.5458 5.27952 13.3333H2.38198C2.04038 12.5541 1.81171 11.7147 1.72382 10.8333H5.03172ZM3.36383 15H5.64329C5.92466 16.0166 6.29169 16.9124 6.72788 17.6554C5.38674 17.077 4.23256 16.1525 3.36383 15ZM13.3008 17.6554C13.7376 16.9124 14.1046 16.0166 14.3854 15H16.665C15.7967 16.1525 14.6425 17.077 13.3008 17.6554ZM17.6475 13.3333H14.7499C14.8804 12.5458 14.965 11.7088 14.9979 10.8333H18.3063C18.218 11.7147 17.9891 12.5541 17.6475 13.3333Z"
    fill="#E5E5E5"
  />
</svg>
