<?xml version="1.0" encoding="UTF-8"?>
<!DOCTYPE svg PUBLIC "-//W3C//DTD SVG 1.1//EN" "http://www.w3.org/Graphics/SVG/1.1/DTD/svg11.dtd">
<!-- Creator: CorelDRAW 2018 (64-Bit) -->
<svg xmlns="http://www.w3.org/2000/svg" xml:space="preserve" width="284mm" height="60mm" version="1.1" style="shape-rendering:geometricPrecision; text-rendering:geometricPrecision; image-rendering:optimizeQuality; fill-rule:evenodd; clip-rule:evenodd"
viewBox="0 0 28400 6000"
 xmlns:xlink="http://www.w3.org/1999/xlink"
 xmlns:xodm="http://www.corel.com/coreldraw/odm/2003">
 <defs>
  <style type="text/css">
   <![CDATA[
    .fil0 {fill:#FEFEFE}
   ]]>
  </style>
 </defs>
 <g id="Слой_x0020_1">
  <metadata id="CorelCorpID_0Corel-Layer"/>
  <path class="fil0" d="M646.4 1845.96l1851.23 0c339.84,0 608.88,42.56 945.24,276.66 171.43,134.57 383.07,432.3 407.89,744.2 21.3,823.18 0,1617.99 0,2426.99l-1353.13 0.01c1.12,-155.68 0,-134.18 0,-208.41 0,-1.9 -11.46,12.16 -13.34,14.28 -204.37,230.91 -617.51,284 -775.25,278.66l-487.46 -14.18c-534.31,-46.51 -1076.17,-487.12 -1052.43,-1069.12l9.75 -239.19c104.04,-432.73 536.46,-710.34 960.19,-760.24 453.86,-40.2 900.6,-13 1350.92,-19.5 -4.77,-145.13 -68.4,-245.99 -130.72,-288.71 -57.71,-54.76 -157.38,-114.33 -331.17,-116.33 -370.88,-4.26 -961.39,-4.26 -1381.72,-4.26l0 -1020.86zm1200.42 2179.74c-168.47,0 -305.02,71.27 -305.02,159.17 0,84.29 125.59,153.28 284.46,158.8 8.55,1.43 17.32,2.17 26.25,2.17l645.12 0 0 -320.05 -641.04 0c-3.25,-0.06 -6.49,-0.09 -9.77,-0.09zm2959.9 -3136.35l1353.14 0 0 4428.31 -1353.14 0 0 -4428.31zm6220.26 956.61l1354.92 -1.52 -1.78 277.62c315.19,-259.96 725.7,-312.84 1093.58,-276.1l0 1108.16c-191.87,-26.11 -270.22,-97.94 -620.39,-49.63 -251.65,34.72 -458.09,211 -472.4,464.62l-0.79 481.49 0 1467.06 -1353.14 0 0 -3471.7zm7772.25 139.4l1353.14 0 0 3332.3 -1353.14 0 0 -3332.3zm-11843.13 -139.4l485.92 0 0 -559.28 1353.16 0 0 559.28 895.59 0 0 1020.86 -895.59 0 0 699.26 14.62 245.56c12.62,212.02 173.77,386.18 386.17,386.18 33.41,0 237.95,3.57 389.32,5.33l166.66 0 414.14 0 0 1090.66 -1591.11 0c-623.12,0 -1132.96,-509.82 -1132.96,-1132.95l0 -1294.04 -485.92 0 0 -1020.86zm18089.4 0l485.93 0 0 -559.28 1353.14 0 0 559.28 895.59 0 0 1020.86 -895.59 0 0 699.26 14.63 245.56c12.62,212.02 173.77,386.18 386.17,386.18 33.41,0 237.96,3.57 389.33,5.33l166.64 0 414.15 0 0 1090.66 -1591.11 0c-623.13,0 -1132.95,-509.82 -1132.95,-1132.95l0 -1294.04 -485.93 0 0 -1020.86zm-5550.11 -1655.21c454.95,0 823.77,308.87 823.77,689.88 0,381 -368.82,689.87 -823.77,689.87 -454.96,0 -823.76,-308.87 -823.76,-689.87 0,-381.01 368.8,-689.88 823.76,-689.88zm-5211.46 1655.21l1353.15 0 0 1454.28c-1.46,14.31 -2.22,28.83 -2.22,43.52l0 518.72c0,235.31 192.53,427.84 427.85,427.84l0 0c222.61,0 406.9,-172.32 426.15,-390.14l3.91 0 0 -2054.22 1353.16 0 0 2054.22 0 1417.48 -1353.16 0 0 -210.59c-197.25,160.54 -448.39,257.1 -721.03,257.1l-418.46 0c-588.14,0 -1069.35,-481.19 -1069.35,-1069.35l0 -394.64 0 -509.84 0 -1544.38zm8742.1 1020.86c-115.3,6.94 -494.16,-1.84 -494.16,169.89 0,140.49 248.05,160.85 405.84,166.98 0,48.17 1275.63,-148.54 1512.24,811.41l0 264.08c-60.63,567.05 -540.58,1006 -1122.96,1014.63l-2282.79 23.85 0 -1027.33 1268.92 0c139.39,-3.3 762.83,43.14 762.83,-171.69 0,-87.91 -137.06,-172 -305.04,-159.17 -836.14,63.85 -1833.11,-245.34 -1551.21,-1311.72 127.59,-523.19 576.19,-781.07 1076.61,-781.07l1591.12 -20.72 346.33 0 0 1020.86 -1207.73 0z"/>
 </g>
</svg>
