<svg width="20" height="20" viewBox="0 0 20 20" fill="none" xmlns="http://www.w3.org/2000/svg">
<path d="M10.0001 8.8094L18.4937 3.51341C18.4013 3.49877 18.3076 3.48926 18.2116 3.48926H1.78871C1.69263 3.48926 1.59876 3.49914 1.50671 3.51341L10.0001 8.8094Z" fill="#0C0C0C"/>
<path d="M10.5347 10.857C10.5234 10.8643 10.5109 10.8691 10.4992 10.8761C10.4869 10.8828 10.4738 10.8894 10.4615 10.8956C10.3947 10.93 10.3259 10.9577 10.2556 10.976C10.2483 10.978 10.2414 10.9791 10.2344 10.9805C10.157 10.9987 10.0792 11.0098 10.0013 11.0098C10.0011 11.0098 10.0007 11.0098 10.0005 11.0098C10.0004 11.0098 10 11.0098 9.99963 11.0098C9.92168 11.0098 9.84373 10.9988 9.76668 10.9805C9.75955 10.9789 9.75223 10.9778 9.74509 10.976C9.67482 10.9575 9.60657 10.9299 9.53941 10.8956C9.52678 10.8894 9.51397 10.8828 9.50153 10.8761C9.48963 10.8693 9.47737 10.8645 9.46566 10.857L0.0279979 4.97217C0.0109796 5.07153 0 5.17328 0 5.27795V14.722C0 15.7098 0.800593 16.5106 1.78857 16.5106H18.2114C19.1992 16.5106 20 15.7098 20 14.722V5.27795C20 5.17328 19.9892 5.07172 19.9718 4.97217L10.5347 10.857Z" fill="#0C0C0C"/>
</svg>
